# xmcd
#
# Track frame offsets:
#	150
#	18300
#	37369
#	52203
#	66754
#	82006
#	96438
#	112504
#	128659
#	144452
#	159947
#	174050
#	189395
#	203590
#	219237
#	235443
#	253691
#	268990
#	284886
#	300636
#	312954
#
# Disc length: 4382 seconds
#
# Revision: 1
# Processed by: cddbd v1.5.2PL0 Copyright (c) Steve Scherf et al.
# Submitted via: dBpowerAMP V4.0
#
DISCID=31111c15
DTITLE=Various Artist - Hott Country Volume 248 Can
DYEAR=2016
DGENRE=Country
TTITLE0=Artists Of Then, Now and Forever - Forever Country
TTITLE1=George Strait - Goin' Goin' Gone
TTITLE2=Brett Kissel ft. Carolyn Dawn Johnson - I Didn't Fall In Love With Your Hair
TTITLE3=Dan and Shay - How Not To
TTITLE4=Jon Pardi - Dirt On My Boots
TTITLE5=Kelsea Ballerini - Yeah Boy
TTITLE6=Bobby Wills - Tougher Than Love
TTITLE7=Jennifer Nettles - Hey Heartbreak
TTITLE8=David Nail ft. Brothers Osborne - Good At Tonight
TTITLE9=Jordan Rager - Now That I Know Your Name
TTITLE10=Andrew Hyatt - That's How I'm Livin'
TTITLE11=Ryan Follese - Put A Label On It
TTITLE12=Jason Blaine - Back To You
TTITLE13=Steve Moakler - Suitcase
TTITLE14=Tristan Horncastle - Long As I'm Alive
TTITLE15=Aaron Lewis - That Ain't Country
TTITLE16=Lovelocks, The - Time After Time
TTITLE17=Tyler Farr - Our Town
TTITLE18=Morgan Wallen - The Way I Talk
TTITLE19=Aubrie Sellers - Sit Here And Cry
TTITLE20=Washboard Union, The - Shot Of Glory [Turbo Diesel Radio Mix]
EXTD=
EXTT0=
EXTT1=
EXTT2=
EXTT3=
EXTT4=
EXTT5=
EXTT6=
EXTT7=
EXTT8=
EXTT9=
EXTT10=
EXTT11=
EXTT12=
EXTT13=
EXTT14=
EXTT15=
EXTT16=
EXTT17=
EXTT18=
EXTT19=
EXTT20=
PLAYORDER=
